HIERARCHY
ROOT Hips
{
	OFFSET 0.000000 103.266502 0.000000
	CHANNELS 6 Xposition Yposition Zposition Xrotation Yrotation Zrotation 
	JOINT Spine
	{
		OFFSET -0.002400 12.777504 0.315300
		CHANNELS 3 Xrotation Yrotation Zrotation
		JOINT Spine1
		{
			OFFSET -0.002067 5.816869 0.032633
			CHANNELS 3 Xrotation Yrotation Zrotation
			JOINT Spine1_split
			{
				OFFSET -0.002067 5.816869 0.032633
				CHANNELS 3 Xrotation Yrotation Zrotation
				JOINT Spine2
				{
					OFFSET -0.002067 5.816869 0.032633
					CHANNELS 3 Xrotation Yrotation Zrotation
					JOINT Neck
					{
						OFFSET -0.003700 21.199493 -0.826900
						CHANNELS 3 Xrotation Yrotation Zrotation
						JOINT Head
						{
							OFFSET 0.000000 20.442200 4.834800
							CHANNELS 3 Xrotation Yrotation Zrotation
							JOINT HeadTop_End
							{
								OFFSET 0.000000 34.668396 4.968400
								CHANNELS 3 Xrotation Yrotation Zrotation
								End Site
								{
									OFFSET 0.000000 0.000000 0.000000
								}
							}
						}
					}
					JOINT LeftShoulder
					{
						OFFSET 3.288150 8.794197 -1.372250
						CHANNELS 3 Xrotation Yrotation Zrotation
						JOINT LeftShoulder_split
						{
							OFFSET 3.288150 8.794197 -1.372250
							CHANNELS 3 Xrotation Yrotation Zrotation
							JOINT LeftArm
							{
								OFFSET 11.953299 -2.279007 -0.146200
								CHANNELS 3 Xrotation Yrotation Zrotation
								JOINT LeftForeArm
								{
									OFFSET 18.448900 0.000000 0.000000
									CHANNELS 3 Xrotation Yrotation Zrotation
									JOINT LeftHand
									{
										OFFSET 29.527798 0.000000 0.000000
										CHANNELS 3 Xrotation Yrotation Zrotation
										JOINT LeftHandThumb1
										{
											OFFSET 10.739754 -2.369614 9.225399
											CHANNELS 3 Xrotation Yrotation Zrotation
											JOINT LeftHandThumb2
											{
												OFFSET 4.926170 -2.844131 2.844125
												CHANNELS 3 Xrotation Yrotation Zrotation
												JOINT LeftHandThumb3
												{
													OFFSET 4.614891 -2.664413 2.664409
													CHANNELS 3 Xrotation Yrotation Zrotation
													JOINT LeftHandThumb4
													{
														OFFSET 4.432465 -2.559082 2.559083
														CHANNELS 3 Xrotation Yrotation Zrotation
														End Site
														{
															OFFSET 0.000000 0.000000 0.000000
														}
													}
												}
											}
										}
										JOINT LeftHandIndex1
										{
											OFFSET 26.467674 0.187653 6.405298
											CHANNELS 3 Xrotation Yrotation Zrotation
											JOINT LeftHandIndex2
											{
												OFFSET 8.792900 0.000000 0.000000
												CHANNELS 3 Xrotation Yrotation Zrotation
												JOINT LeftHandIndex3
												{
													OFFSET 10.075203 0.000000 0.000000
													CHANNELS 3 Xrotation Yrotation Zrotation
													End Site
													{
														OFFSET 0.000000 0.000000 0.000000
													}
												}
											}
										}
										JOINT LeftHandMiddle1
										{
											OFFSET 25.764404 0.000000 0.000000
											CHANNELS 3 Xrotation Yrotation Zrotation
											JOINT LeftHandMiddle2
											{
												OFFSET 9.393974 0.000000 0.000000
												CHANNELS 3 Xrotation Yrotation Zrotation
												JOINT LeftHandMiddle3
												{
													OFFSET 10.771950 0.000000 0.000000
													CHANNELS 3 Xrotation Yrotation Zrotation
													End Site
													{
														OFFSET 0.000000 0.000000 0.000000
													}
												}
											}
										}
										JOINT LeftHandRing1
										{
											OFFSET 24.660927 0.144547 -6.225808
											CHANNELS 3 Xrotation Yrotation Zrotation
											JOINT LeftHandRing2
											{
												OFFSET 9.393799 0.000000 0.000000
												CHANNELS 3 Xrotation Yrotation Zrotation
												JOINT LeftHandRing3
												{
													OFFSET 9.928497 0.000000 0.000000
													CHANNELS 3 Xrotation Yrotation Zrotation
													End Site
													{
														OFFSET 0.000000 0.000000 0.000000
													}
												}
											}
										}
										JOINT LeftHandPinky1
										{
											OFFSET 23.655350 0.125290 -12.815412
											CHANNELS 3 Xrotation Yrotation Zrotation
											JOINT LeftHandPinky2
											{
												OFFSET 8.425102 0.000000 0.000000
												CHANNELS 3 Xrotation Yrotation Zrotation
												JOINT LeftHandPinky3
												{
													OFFSET 8.147003 0.000000 0.000000
													CHANNELS 3 Xrotation Yrotation Zrotation
													End Site
													{
														OFFSET 0.000000 0.000000 0.000000
													}
												}
											}
										}
									}
								}
							}
						}
					}
					JOINT RightShoulder
					{
						OFFSET -3.249400 8.794197 -1.372250
						CHANNELS 3 Xrotation Yrotation Zrotation
						JOINT RightShoulder_split
						{
							OFFSET -3.249400 8.794197 -1.372250
							CHANNELS 3 Xrotation Yrotation Zrotation
							JOINT RightArm
							{
								OFFSET -11.953299 -2.279007 -0.146200
								CHANNELS 3 Xrotation Yrotation Zrotation
								JOINT RightForeArm
								{
									OFFSET -18.448900 0.000000 0.000000
									CHANNELS 3 Xrotation Yrotation Zrotation
									JOINT RightHand
									{
										OFFSET -29.527802 0.000000 0.000000
										CHANNELS 3 Xrotation Yrotation Zrotation
										JOINT RightHandThumb1
										{
											OFFSET -10.739754 -2.369614 9.225399
											CHANNELS 3 Xrotation Yrotation Zrotation
											JOINT RightHandThumb2
											{
												OFFSET -4.926170 -2.844131 2.844125
												CHANNELS 3 Xrotation Yrotation Zrotation
												JOINT RightHandThumb3
												{
													OFFSET -4.614891 -2.664413 2.664409
													CHANNELS 3 Xrotation Yrotation Zrotation
													JOINT RightHandThumb4
													{
														OFFSET -4.432465 -2.559082 2.559083
														CHANNELS 3 Xrotation Yrotation Zrotation
														End Site
														{
															OFFSET 0.000000 0.000000 0.000000
														}
													}
												}
											}
										}
										JOINT RightHandIndex1
										{
											OFFSET -26.467674 0.187653 6.405298
											CHANNELS 3 Xrotation Yrotation Zrotation
											JOINT RightHandIndex2
											{
												OFFSET -8.792900 0.000000 0.000000
												CHANNELS 3 Xrotation Yrotation Zrotation
												JOINT RightHandIndex3
												{
													OFFSET -10.075203 0.000000 0.000000
													CHANNELS 3 Xrotation Yrotation Zrotation
													End Site
													{
														OFFSET 0.000000 0.000000 0.000000
													}
												}
											}
										}
										JOINT RightHandMiddle1
										{
											OFFSET -25.764404 0.000000 0.000000
											CHANNELS 3 Xrotation Yrotation Zrotation
											JOINT RightHandMiddle2
											{
												OFFSET -9.393974 0.000000 0.000000
												CHANNELS 3 Xrotation Yrotation Zrotation
												JOINT RightHandMiddle3
												{
													OFFSET -10.771950 0.000000 0.000000
													CHANNELS 3 Xrotation Yrotation Zrotation
													End Site
													{
														OFFSET 0.000000 0.000000 0.000000
													}
												}
											}
										}
										JOINT RightHandRing1
										{
											OFFSET -24.660927 0.144547 -6.225808
											CHANNELS 3 Xrotation Yrotation Zrotation
											JOINT RightHandRing2
											{
												OFFSET -9.393799 0.000000 0.000000
												CHANNELS 3 Xrotation Yrotation Zrotation
												JOINT RightHandRing3
												{
													OFFSET -9.928497 0.000000 0.000000
													CHANNELS 3 Xrotation Yrotation Zrotation
													End Site
													{
														OFFSET 0.000000 0.000000 0.000000
													}
												}
											}
										}
										JOINT RightHandPinky1
										{
											OFFSET -23.655350 0.125290 -12.815412
											CHANNELS 3 Xrotation Yrotation Zrotation
											JOINT RightHandPinky2
											{
												OFFSET -8.425102 0.000000 0.000000
												CHANNELS 3 Xrotation Yrotation Zrotation
												JOINT RightHandPinky3
												{
													OFFSET -8.147003 0.000000 0.000000
													CHANNELS 3 Xrotation Yrotation Zrotation
													End Site
													{
														OFFSET 0.000000 0.000000 0.000000
													}
												}
											}
										}
									}
								}
							}
						}
					}
				}
			}
		}
	}
	JOINT LeftUpLeg
	{
		OFFSET 11.394100 -6.187798 -0.413800
		CHANNELS 3 Xrotation Yrotation Zrotation
		JOINT LeftLeg
		{
			OFFSET 0.430247 -32.302673 3.732800
			CHANNELS 3 Xrotation Yrotation Zrotation
			JOINT LeftFoot
			{
				OFFSET -0.430247 -48.264931 -6.423300
				CHANNELS 3 Xrotation Yrotation Zrotation
				JOINT LeftToeBase
				{
					OFFSET 4.230900 -16.068199 23.438400
					CHANNELS 3 Xrotation Yrotation Zrotation
					JOINT LeftToe_End
					{
						OFFSET 4.510700 0.695400 19.974600
						CHANNELS 3 Xrotation Yrotation Zrotation
						End Site
						{
							OFFSET 0.000000 0.000000 0.000000
						}
					}
				}
			}
		}
	}
	JOINT RightUpLeg
	{
		OFFSET -11.333700 -6.187798 -0.413800
		CHANNELS 3 Xrotation Yrotation Zrotation
		JOINT RightLeg
		{
			OFFSET -0.430392 -32.302628 3.733000
			CHANNELS 3 Xrotation Yrotation Zrotation
			JOINT RightFoot
			{
				OFFSET 0.430392 -48.264973 -6.423500
				CHANNELS 3 Xrotation Yrotation Zrotation
				JOINT RightToeBase
				{
					OFFSET -4.230900 -16.068199 23.438400
					CHANNELS 3 Xrotation Yrotation Zrotation
					JOINT RightToe_End
					{
						OFFSET -4.510700 0.695400 19.974600
						CHANNELS 3 Xrotation Yrotation Zrotation
						End Site
						{
							OFFSET 0.000000 0.000000 0.000000
						}
					}
				}
			}
		}
	}
}
MOTION
Frames: 6
Frame Time: 0.016667
2.619902 94.824326 0.228724 -174.044640 -97.700071 -171.872859 7.190354 -5.606694 -4.640048 3.180249 -8.412478 -0.457312 0.000000 0.000000 0.000000 3.240269 -8.382685 -0.141390 -11.954771 7.249587 7.049805 90.964050 78.695070 -96.836141 0.000000 -0.000000 -0.000000 4.998842 3.199383 13.148478 0.000000 0.000000 0.000000 -41.287158 14.474965 -0.764746 0.404856 -12.304733 -0.189206 -49.608190 -4.504517 -0.286690 40.109951 -15.297192 -0.360459 5.639927 28.097745 11.338740 1.088512 40.896318 22.734040 0.000001 -0.000002 0.000001 6.882275 2.840015 -61.140500 8.247955 7.640052 -89.897891 0.000001 0.000000 0.000000 -2.345520 4.688848 -62.655258 8.754160 9.897073 -87.051253 0.000000 -0.000001 0.000003 -9.042480 10.045603 -60.766192 8.524030 9.508867 -66.892912 -0.000000 -0.000001 -0.000005 -17.946783 14.755017 -51.485925 8.868339 8.666988 -84.811989 0.000000 0.000000 -0.000003 -0.697215 3.176109 -19.419908 0.000000 0.000000 0.000000 -43.720379 41.405945 39.746199 -0.236271 135.165141 1.057676 -74.611866 -0.241661 -6.555974 0.277491 -1.521506 -1.570509 7.169023 -41.689651 -15.773511 -4.517967 11.064480 4.673952 0.000000 -0.000000 -0.000000 6.412843 -12.738386 14.389580 9.941744 -7.465169 101.743236 -0.000001 -0.000003 -0.000001 2.653211 -11.302320 44.730929 9.916099 -9.880670 94.351215 -0.000002 -0.000000 0.000001 2.140180 -7.454457 61.765025 9.609246 -8.992476 89.388721 0.000001 -0.000001 0.000001 -4.886646 -23.798133 68.396162 13.518286 -7.949263 112.864942 0.000000 -0.000000 -0.000002 -27.236117 28.934259 29.010542 24.719553 -8.013166 0.966296 -0.828602 3.522153 -16.880136 -1.333112 -0.000663 -0.000046 -0.000000 -0.000001 0.000000 -25.583537 -8.536265 -25.020552 19.370304 2.880344 -4.250634 1.539776 9.118637 21.809107 0.012982 -0.000409 0.000175 0.000000 -0.000000 -0.000000 
2.574348 94.823395 0.225235 -174.145877 -97.777942 -171.952690 7.175172 -5.641557 -4.677263 3.193039 -8.441205 -0.434100 0.000000 0.000000 0.000000 3.256754 -8.414364 -0.119546 -11.939449 7.256018 7.066638 91.444943 78.685446 -97.309637 0.000002 -0.000000 0.000000 4.942458 3.372596 13.150521 0.000000 0.000000 0.000000 -41.216790 14.374471 -0.890731 0.408195 -12.293947 -0.188321 -49.593519 -4.514079 -0.289862 40.109951 -15.297192 -0.360458 5.639927 28.097749 11.338736 1.088516 40.896314 22.734040 0.000001 -0.000001 0.000000 6.882272 2.840015 -61.140493 8.247956 7.640055 -89.897891 0.000001 -0.000001 -0.000000 -2.345522 4.688846 -62.655258 8.754157 9.897072 -87.051253 -0.000002 -0.000002 -0.000000 -9.042479 10.045604 -60.766192 8.524031 9.508869 -66.892912 -0.000001 -0.000000 0.000000 -17.946783 14.755017 -51.485925 8.868338 8.666988 -84.811989 0.000000 0.000000 0.000000 -0.667743 3.236922 -19.377581 0.000000 0.000000 0.000000 -43.532521 41.170557 39.610989 -0.208230 135.324571 1.024193 -74.601266 -0.328466 -6.443882 0.277492 -1.521506 -1.570510 7.169023 -41.689644 -15.773511 -4.517971 11.064480 4.673952 0.000000 -0.000002 -0.000003 6.412844 -12.738383 14.389581 9.941746 -7.465166 101.743242 0.000001 -0.000002 0.000002 2.653210 -11.302320 44.730936 9.916095 -9.880666 94.351222 0.000001 -0.000001 0.000002 2.140179 -7.454458 61.765025 9.609247 -8.992472 89.388721 -0.000001 -0.000001 0.000002 -4.886648 -23.798131 68.396162 13.518286 -7.949264 112.864942 0.000002 0.000001 0.000000 -27.182140 28.910989 28.962690 24.685765 -8.047606 0.962037 -0.830633 3.524789 -16.887989 -1.325662 -0.000724 -0.000023 0.000000 -0.000003 -0.000000 -25.525493 -8.485389 -25.043648 19.430331 2.775880 -4.262988 1.466561 9.090180 21.842691 0.012814 -0.000382 0.000112 -0.000000 0.000000 0.000000 
2.528981 94.822182 0.221751 -174.243549 -97.855171 -172.029079 7.160922 -5.674702 -4.717691 3.205284 -8.468304 -0.412652 0.000000 0.000000 0.000000 3.272588 -8.444023 -0.099792 -11.924545 7.262645 7.083635 92.002573 78.676068 -97.862677 0.000000 0.000000 0.000000 4.890243 3.523481 13.153892 0.000000 0.000000 0.000000 -41.149830 14.283764 -0.998567 0.411568 -12.282996 -0.187463 -49.578776 -4.523373 -0.293028 40.109951 -15.297190 -0.360459 5.639929 28.097749 11.338741 1.088517 40.896314 22.734040 0.000002 0.000001 -0.000000 6.882272 2.840016 -61.140493 8.247957 7.640053 -89.897898 0.000003 -0.000001 -0.000002 -2.345522 4.688849 -62.655265 8.754160 9.897074 -87.051253 0.000000 -0.000001 0.000000 -9.042478 10.045605 -60.766192 8.524031 9.508870 -66.892912 -0.000000 0.000001 0.000000 -17.946783 14.755017 -51.485932 8.868337 8.666986 -84.811989 -0.000000 0.000000 0.000001 -0.637571 3.300950 -19.333492 0.000000 0.000000 0.000000 -43.321540 40.922566 39.468955 -0.182337 135.493960 0.993880 -74.580079 -0.410724 -6.329823 0.277489 -1.521506 -1.570508 7.169023 -41.689648 -15.773516 -4.517966 11.064479 4.673950 0.000002 0.000001 -0.000003 6.412845 -12.738384 14.389583 9.941748 -7.465168 101.743236 0.000001 -0.000000 -0.000001 2.653210 -11.302319 44.730933 9.916099 -9.880670 94.351215 -0.000000 0.000000 0.000003 2.140179 -7.454457 61.765025 9.609245 -8.992476 89.388721 -0.000001 0.000000 0.000003 -4.886648 -23.798128 68.396162 13.518287 -7.949262 112.864935 -0.000003 0.000001 0.000000 -27.129836 28.888849 28.916087 24.653006 -8.083282 0.957861 -0.832999 3.527704 -16.895528 -1.331761 -0.000712 -0.000039 -0.000000 0.000006 0.000000 -25.468776 -8.434113 -25.066815 19.491608 2.669010 -4.275318 1.393022 9.064778 21.876331 0.013135 -0.000436 0.000161 0.000000 0.000000 -0.000000 
2.483867 94.820633 0.218275 -174.337573 -97.931894 -172.101875 7.147527 -5.708582 -4.757907 3.217084 -8.497964 -0.386808 0.000000 0.000000 0.000000 3.288898 -8.475695 -0.075519 -11.909489 7.269123 7.100596 92.471793 78.666950 -98.326290 0.000000 -0.000000 -0.000000 4.841598 3.655644 13.158285 0.000000 0.000000 0.000000 -41.084059 14.218016 -1.098234 0.414885 -12.271942 -0.186586 -49.563739 -4.532726 -0.296224 40.109948 -15.297189 -0.360459 5.639925 28.097744 11.338736 1.088514 40.896318 22.734040 0.000001 0.000000 0.000002 6.882273 2.840016 -61.140493 8.247955 7.640052 -89.897891 0.000001 -0.000001 0.000000 -2.345522 4.688849 -62.655258 8.754160 9.897078 -87.051253 -0.000001 0.000000 -0.000001 -9.042481 10.045606 -60.766192 8.524029 9.508866 -66.892912 -0.000001 -0.000001 -0.000001 -17.946783 14.755017 -51.485925 8.868339 8.666988 -84.811982 -0.000001 0.000000 0.000001 -0.606759 3.367932 -19.287862 0.000000 0.000000 0.000000 -43.123332 40.674992 39.332993 -0.149015 135.647926 0.959549 -74.559813 -0.500136 -6.199189 0.277490 -1.521506 -1.570509 7.169021 -41.689651 -15.773516 -4.517971 11.064480 4.673948 0.000001 0.000002 0.000000 6.412841 -12.738385 14.389585 9.941746 -7.465168 101.743242 0.000001 -0.000001 0.000002 2.653207 -11.302319 44.730936 9.916097 -9.880669 94.351222 -0.000000 -0.000000 -0.000000 2.140177 -7.454459 61.765025 9.609248 -8.992473 89.388721 0.000001 -0.000002 0.000002 -4.886649 -23.798131 68.396162 13.518286 -7.949263 112.864942 -0.000001 0.000000 -0.000001 -27.079492 28.867658 28.870513 24.621886 -8.135972 0.952375 -0.835843 3.546615 -16.900825 -1.321090 -0.000648 -0.000042 -0.000000 -0.000004 -0.000000 -25.412829 -8.383046 -25.089902 19.552986 2.562051 -4.287480 1.319804 9.040209 21.909924 0.012899 -0.000362 0.000148 0.000000 -0.000000 0.000000 
2.439033 94.818581 0.214777 -174.429781 -98.007730 -172.172936 7.134762 -5.745752 -4.796816 3.228220 -8.534274 -0.354373 0.000000 0.000000 0.000000 3.305729 -8.512876 -0.044383 -11.894713 7.275373 7.117887 93.086544 78.657517 -98.937319 -0.000000 -0.000000 0.000000 4.794459 3.779250 13.163264 0.000000 0.000000 0.000000 -41.016584 14.181509 -1.195722 0.418194 -12.262820 -0.185712 -49.548559 -4.541500 -0.298943 40.109948 -15.297190 -0.360459 5.639930 28.097749 11.338742 1.088512 40.896314 22.734040 0.000001 0.000000 0.000001 6.882276 2.840016 -61.140500 8.247955 7.640053 -89.897891 0.000001 0.000002 0.000000 -2.345520 4.688848 -62.655265 8.754160 9.897077 -87.051246 -0.000003 -0.000000 0.000000 -9.042478 10.045606 -60.766192 8.524030 9.508869 -66.892919 -0.000001 0.000001 -0.000002 -17.946781 14.755019 -51.485925 8.868338 8.666988 -84.811989 0.000001 -0.000000 0.000001 -0.575560 3.437847 -19.240783 0.000000 0.000000 0.000000 -42.945914 40.427852 39.210829 -0.103584 135.784639 0.919944 -74.540313 -0.600642 -6.041250 0.277492 -1.521505 -1.570508 7.169025 -41.689648 -15.773516 -4.517970 11.064481 4.673950 0.000000 0.000001 0.000000 6.412843 -12.738385 14.389583 9.941748 -7.465170 101.743236 -0.000001 0.000001 -0.000001 2.653210 -11.302320 44.730929 9.916095 -9.880667 94.351222 -0.000002 -0.000001 0.000001 2.140178 -7.454458 61.765025 9.609247 -8.992472 89.388721 -0.000001 -0.000002 0.000002 -4.886648 -23.798131 68.396162 13.518287 -7.949264 112.864942 -0.000003 -0.000001 0.000000 -27.030863 28.847147 28.827264 24.592018 -8.166143 0.948591 -0.839088 3.541921 -16.908827 -1.360065 -0.000635 -0.000038 0.000000 0.000000 0.000000 -25.358454 -8.331775 -25.112876 19.616022 2.458120 -4.299270 1.246572 9.013721 21.943144 0.012995 -0.000389 0.000091 -0.000000 -0.000000 -0.000000 
2.394538 94.816132 0.211264 -174.518683 -98.082705 -172.240664 7.124910 -5.776143 -4.842260 3.238115 -8.558131 -0.333727 0.000000 0.000000 0.000000 3.319804 -8.538077 -0.025668 -11.879794 7.281532 7.134542 93.480722 78.651104 -99.326612 0.000001 0.000000 0.000000 4.748876 3.895330 13.168653 0.000000 0.000000 0.000000 -40.954740 14.107559 -1.279143 0.421501 -12.251560 -0.184837 -49.533454 -4.550727 -0.302248 40.109951 -15.297190 -0.360458 5.639928 28.097749 11.338737 1.088512 40.896314 22.734044 -0.000002 0.000001 0.000002 6.882277 2.840016 -61.140500 8.247954 7.640056 -89.897891 -0.000000 -0.000000 -0.000001 -2.345520 4.688848 -62.655258 8.754160 9.897074 -87.051253 -0.000001 0.000000 -0.000001 -9.042476 10.045605 -60.766199 8.524033 9.508870 -66.892906 -0.000001 -0.000000 -0.000001 -17.946776 14.755019 -51.485925 8.868338 8.666988 -84.811989 0.000000 0.000000 0.000000 -0.544066 3.510620 -19.192389 0.000000 0.000000 0.000000 -42.738461 40.179476 39.071274 -0.075861 135.935163 0.887327 -74.514072 -0.682592 -5.924692 0.277490 -1.521505 -1.570508 7.169021 -41.689648 -15.773518 -4.517972 11.064479 4.673948 0.000002 0.000001 -0.000001 6.412845 -12.738385 14.389585 9.941745 -7.465168 101.743242 0.000001 -0.000003 0.000002 2.653210 -11.302318 44.730929 9.916100 -9.880670 94.351215 0.000001 0.000001 -0.000003 2.140177 -7.454457 61.765025 9.609251 -8.992473 89.388721 0.000001 0.000000 0.000004 -4.886649 -23.798131 68.396162 13.518287 -7.949264 112.864942 -0.000001 0.000001 0.000001 -26.984897 28.827654 28.785409 24.564579 -8.208457 0.943994 -0.842943 3.548612 -16.915083 -1.337432 -0.000678 -0.000045 -0.000000 -0.000002 -0.000000 -25.306380 -8.280015 -25.135977 19.681559 2.353410 -4.311186 1.172686 8.989179 21.976306 0.013542 -0.000382 0.000133 -0.000000 -0.000000 0.000000 
